# xmcd CD database file
#
# Track frame offsets:
#	150
#	20025
#	37413
#	57280
#
# Disc length: 993 seconds
#
# Revision: 0
# Processed by: cddbd v1.5PL3 Copyright (c) Steve Scherf et al.
# Submitted via: CDex 1.51
#
DISCID=3603df04
DTITLE=関東裸会 三羽烏 - 答 -answer is my life-
DYEAR=1900
DGENRE=J-pop
TTITLE0=答 -answer is my life-
TTITLE1=北松戸ブルース
TTITLE2=答 -answer is my life-(オリジナルカラオケ)
TTITLE3=北松戸ブルース(オリジナルカラオケ)
EXTD=
EXTT0=
EXTT1=
EXTT2=
EXTT3=
PLAYORDER=
